<svg width="11" height="11" viewBox="0 0 11 11" fill="none" xmlns="http://www.w3.org/2000/svg">
<path d="M2.058 0.899999C2.55267 0.899999 2.97267 1.07267 3.318 1.418C3.66333 1.76333 3.836 2.18333 3.836 2.678C3.836 3.17267 3.66333 3.59267 3.318 3.938C2.97267 4.274 2.55267 4.442 2.058 4.442C1.554 4.442 1.12933 4.274 0.784 3.938C0.438667 3.59267 0.266 3.17267 0.266 2.678C0.266 2.18333 0.438667 1.76333 0.784 1.418C1.12933 1.07267 1.554 0.899999 2.058 0.899999ZM2.044 1.558C1.736 1.558 1.47 1.67 1.246 1.894C1.022 2.10867 0.91 2.37 0.91 2.678C0.91 2.986 1.022 3.252 1.246 3.476C1.47 3.69067 1.736 3.798 2.044 3.798C2.36133 3.798 2.62733 3.69067 2.842 3.476C3.066 3.252 3.178 2.986 3.178 2.678C3.178 2.37 3.066 2.10867 2.842 1.894C2.62733 1.67 2.36133 1.558 2.044 1.558ZM8.47448 0.913999C9.38915 0.913999 10.1965 1.11933 10.8965 1.53L10.6305 2.804L10.4905 2.846C9.86515 2.36067 9.17448 2.118 8.41848 2.118C7.59715 2.118 6.96715 2.398 6.52848 2.958C6.09915 3.50867 5.88448 4.33467 5.88448 5.436C5.88448 6.56533 6.10382 7.424 6.54248 8.012C6.98115 8.6 7.60648 8.894 8.41848 8.894C8.81048 8.894 9.19782 8.82867 9.58048 8.698C9.97248 8.558 10.3318 8.36667 10.6585 8.124L10.7985 8.208L10.6865 9.524C9.88382 9.916 9.09048 10.112 8.30648 10.112C7.04648 10.112 6.07582 9.72 5.39448 8.936C4.71315 8.152 4.37248 7.03667 4.37248 5.59C4.37248 4.09667 4.72715 2.944 5.43648 2.132C6.15515 1.32 7.16782 0.913999 8.47448 0.913999Z" fill="white"/>
</svg>
