<svg width="24" height="24" viewBox="0 0 24 24" fill="none" xmlns="http://www.w3.org/2000/svg">
<path d="M12.0284 16.1645C11.7777 15.946 11.5725 15.4951 11.5725 15.1624V3.6047C11.5725 3.27215 11.3005 3.00014 10.968 3.00014H10.1925C9.86001 3.00014 9.58799 3.27215 9.58799 3.6047L9.58786 15.1621C9.58786 15.4949 9.37451 15.9358 9.11389 16.1423C9.11389 16.1423 7.99988 17.0245 7.99988 17.8586C7.99988 19.1463 9.13306 20.1903 10.5309 20.1903C11.9284 20.1903 13.0614 19.1462 13.0614 17.8586C13.0614 17.0646 12.0285 16.1643 12.0285 16.1643L12.0284 16.1645Z" fill="white"/>
<path d="M11.3215 6.35842C11.3215 6.69097 11.0495 6.96298 10.7169 6.96298H10.4521C10.1196 6.96298 9.84755 6.69098 9.84755 6.35842L9.84741 3.86722C9.84741 3.53468 10.1194 3.26266 10.452 3.26266H10.7168C11.0493 3.26266 11.3213 3.53467 11.3213 3.86722L11.3215 6.35842Z" fill="white"/>
<path d="M14.592 13.6013C14.592 14.1723 14.1295 14.6349 13.5582 14.6349C12.9868 14.6349 12.5245 14.1725 12.5245 13.6013L13.5443 11.7406L14.592 13.6013Z" fill="white"/>
<path d="M15.7045 15.2926C15.7012 15.6241 15.4304 15.8899 15.0986 15.8867C14.7677 15.8838 14.5016 15.6128 14.5049 15.2812L15.1069 14.2071L15.7045 15.2926Z" fill="white"/>
<path d="M15.4868 12.641C15.485 12.8385 15.3234 12.9971 15.126 12.9951C14.9287 12.9932 14.7697 12.8317 14.7719 12.6343L15.1311 11.9938L15.4868 12.641Z" fill="white"/>
<path d="M12.0069 18.3375C11.9872 18.3372 12.0043 18.3371 12.0449 18.3371C12.0849 18.3371 11.9978 18.5814 11.8507 18.8797L11.8027 18.9767C11.656 19.275 11.3173 19.5193 11.0503 19.5193H10.5646H10.0792C9.81231 19.5193 9.47361 19.275 9.32655 18.9767L9.27861 18.8797C9.13155 18.5814 9.04477 18.3371 9.08548 18.3371C9.12646 18.3371 9.43194 18.3371 9.76452 18.3374L11.4384 18.3376C11.7706 18.3376 12.0267 18.3375 12.0069 18.3375H12.0069Z" fill="white"/>
<path d="M10.3446 18.0755C9.95934 18.0533 9.73902 17.929 9.54188 17.5552C9.34473 17.181 9.36844 17.0372 9.56732 16.5997L9.57951 16.6011C10.0437 16.6842 10.1745 16.7483 10.3694 17.1197C10.5672 17.4932 10.5446 17.7457 10.3445 18.0753" fill="white"/>
<path d="M10.7962 17.01C10.6245 17.0002 10.5264 16.9448 10.4386 16.7783C10.3509 16.6119 10.3613 16.5477 10.4501 16.3529L10.4552 16.3533C10.662 16.3904 10.7204 16.4192 10.8068 16.5844C10.8947 16.7506 10.8846 16.8632 10.7956 17.01" fill="white"/>
<path d="M11.0178 18.0755C10.8425 17.8603 10.8015 17.6826 10.9045 17.3962C11.008 17.1098 11.0958 17.0529 11.4248 16.946L11.4295 16.9535C11.6111 17.2403 11.6399 17.341 11.5381 17.6246C11.4352 17.911 11.2898 18.021 11.0178 18.0747" fill="white"/>
</svg>
